<?xml version="1.0" encoding="utf-8"?>
<!-- Generator: Adobe Illustrator 27.0.0, SVG Export Plug-In . SVG Version: 6.00 Build 0)  -->
<svg version="1.1" id="Layer_1" xmlns="http://www.w3.org/2000/svg" xmlns:xlink="http://www.w3.org/1999/xlink" x="0px" y="0px"
	 viewBox="0 0 150 197" style="enable-background:new 0 0 150 197;" xml:space="preserve">
<style type="text/css">
	.st0{fill:url(#SVGID_1_);}
	.st1{fill:#FFFFFF;}
</style>
<g>
	<g>
		<linearGradient id="SVGID_1_" gradientUnits="userSpaceOnUse" x1="75" y1="0" x2="75" y2="197">
			<stop  offset="0" style="stop-color:#CCE0F4"/>
			<stop  offset="0.0641" style="stop-color:#C3DCF2"/>
			<stop  offset="0.1706" style="stop-color:#A9D2EE"/>
			<stop  offset="0.3066" style="stop-color:#80C2E7"/>
			<stop  offset="0.4649" style="stop-color:#47ACDE"/>
			<stop  offset="0.5674" style="stop-color:#1E9CD7"/>
			<stop  offset="0.8652" style="stop-color:#0075BE"/>
			<stop  offset="0.9944" style="stop-color:#005B97"/>
		</linearGradient>
		<rect class="st0" width="150" height="197"/>
	</g>
	<g>
		<path class="st1" d="M29.75,29.74h23.2l2.9,36.28C56.1,71.85,56.27,77,56.4,83.12h0.56c1.38-6.12,3.21-11.35,4.85-17.07
			l6.63-19.02h14.31l6.22,19.02c1.57,5.57,3.36,10.8,4.85,17.07h0.61c0.17-6.27,0.25-11.42,0.51-17.07l2.81-36.31h21.72
			l-12.25,68.15H83.38l-5.87-21.11c-1.19-4.33-2.29-8.91-2.65-13.01H74.4c-0.62,4.11-1.42,8.68-2.61,13.01l-5.65,21.11H42.82
			L29.75,29.74z"/>
		<path class="st1" d="M60.6,131.13L33.53,98.07h24.91l9.57,12.86c2.36,3.14,4.63,6.64,7.59,10.94h0.61c2.4-4.3,4.59-7.8,6.68-10.94
			l8.83-12.86h23.87l-27.07,33.78l28.82,34.34H92.38l-10.69-13.87c-2.73-3.52-5.13-7.05-7.91-11.23h-0.61
			c-2.44,4.18-4.8,7.71-7.26,11.23l-10.26,13.87H31.78L60.6,131.13z"/>
	</g>
</g>
</svg>
